# xmcd
#
# Track frame offsets:
#	150
#	20234
#	38151
#	55112
#	75212
#	90150
#	102992
#	120042
#	136475
#	150074
#	168103
#	179711
#	196477
#	218378
#	235928
#	259056
#	293584
#
# Disc length: 3927 seconds
#
# Revision: 1
# Processed by: cddbd v1.5.1PL0 Copyright (c) Steve Scherf et al.
# Submitted via: audiograbber 1.83.01
#
DISCID=ca0f5511
DTITLE=Sound Choice - SC8907
DYEAR=2005
DGENRE=KARAOKE
TTITLE0=Brooks and Dunn - It's Getting Better All The Time
TTITLE1=Jimmy Wayne - Paper Angels
TTITLE2=Toby Keith - Go With Her
TTITLE3=Montgomery Gentry - Gone
TTITLE4=Tim McGraw - Kill Myself
TTITLE5=Josh Gracin - Nothin' To Lose
TTITLE6=Shania Twain - I Ain't No Quitter
TTITLE7=Martina McBride - Over The Rainbow (Live Version)
TTITLE8=Shelly Fairchild - You Don't Lie Here Anymore
TTITLE9=Tim McGraw - How Bad Do You Want It
TTITLE10=Joe Nichols - What's A Guy Gotta Do
TTITLE11=Andy Griggs - If Heaven
TTITLE12=Katrina Elam - No End In Sight
TTITLE13=Miranda Lambert - Me And Charlie Talking
TTITLE14=Big and Rich - Rollin' (The Ballad Of Big and Rich)
TTITLE15=Big and Rich - Rollin' (The Ballad Of Big and Rich) (Rap Version)
TTITLE16=DATA TRACK - Data Track
EXTD=
EXTT0=
EXTT1=
EXTT2=
EXTT3=
EXTT4=
EXTT5=
EXTT6=
EXTT7=
EXTT8=
EXTT9=
EXTT10=
EXTT11=
EXTT12=
EXTT13=
EXTT14=
EXTT15=
EXTT16=
PLAYORDER=
